<svg xmlns="http://www.w3.org/2000/svg" viewBox="0 0 512 512">
  <style>
    .m-fur{fill:#e0263a;stroke:#a5121f;stroke-linejoin:round}.m-saddle{fill:#f2b81f;stroke:#c48f0a}.m-silhouette{stroke-width:6}
    .m-gold{fill:#f2b81f}.m-ring{fill:#e0263a;stroke:#8e0e1b;stroke-width:1.2}
    .m-lace{fill:none;stroke:#fff6ea;stroke-width:1.3;stroke-linecap:round;stroke-linejoin:round}
    .m-lace-dots{fill:none;stroke:#fff6ea;stroke-width:1.7;stroke-linecap:round;stroke-dasharray:0 3.2}.m-lace-fill{fill:#fff6ea}
    .m-bridle{fill:none;stroke:#f2b81f;stroke-width:1.6;stroke-linecap:round}.m-lash{fill:none;stroke:#2f2a28;stroke-width:1.1;stroke-linecap:round}
    .m-cheek{fill:#ffb3bd;opacity:.55}.m-white{fill:#fff}.m-ink,.m-nose{fill:#2f2a28}
    .m-stroke{fill:none;stroke:#2f2a28;stroke-width:1.8;stroke-linecap:round;stroke-linejoin:round}
    .m-mouth-in{fill:#3a1f2b;stroke:#2f2a28;stroke-width:1.4;stroke-linejoin:round}.m-tongue{fill:#ff9aa6}
    .m-eyes,.m-brows,.m-mouth-smile,.m-mouth-sad,.m-mouth-o{display:none}
  </style>
  <rect width="512" height="512" fill="#fff6ea"/>
  <ellipse cx="256" cy="452" rx="170" ry="16" fill="#f1dfc7"/>
  <g transform="translate(10 6) scale(4.1)">
      <g class="m-bob"><g class="m-body">
        <!-- Silhouette traced from icons/61333.png; decorations below use the same grid. -->
        <g transform="translate(7.5 13.5) scale(.9318) translate(-3.7 -15.6)">
          <g transform="translate(3.7 15.6) scale(.22)">
            <path d="M 413.5 51.1 C 388.4 54.4, 368.1 65.1, 356.6 81.3 C 350.9 89.5, 348.5 94.3, 340.6 114.3 C 330.8 139, 326 148, 317.7 156.7 L 313.7 160.9 317.3 168.2 C 339.3 213.2, 304.9 263.9, 252.1 264.1 C 229.7 264.2, 212.2 257.3, 197.4 242.5 C 184.9 230, 179.1 217, 178.3 199.3 L 177.7 188.1 172.1 186 C 137.4 173.1, 93.6 183, 61.7 211.1 L 57.9 214.5 74.2 231.7 L 90.4 248.9 95.5 244.4 C 109.7 231.8, 122 224.2, 136.1 219.5 C 146.8 215.8, 146.9 216.2, 138.4 225.3 C 108.1 257.5, 80.4 307.5, 59.3 368 C 56.4 376.5, 53.7 384.1, 53.5 384.8 C 52.9 386.3, 39.3 379.4, 30.6 373.3 C 28 371.4, 25.4 370.2, 25 370.7 C 24.6 371.1, 18.8 378.3, 12.1 386.7 L -0 401.9 5.2 405.8 C 55.4 442.7, 153 463.4, 268.2 461.7 C 367.4 460.3, 443.9 443.7, 497.2 412.1 C 503.9 408.1, 516.6 398.3, 512.4 400.4 C 511.7 400.7, 506.1 394.6, 499.5 386.2 C 493 378.1, 487.4 371.2, 487 370.7 C 486.7 370.3, 482.8 372.4, 478.4 375.2 C 466 383.4, 454.1 388.8, 452.9 387 C 441 368.1, 431.5 351.5, 425.6 339.5 C 392.9 273.1, 386.4 227.2, 407.1 208.6 C 416.3 200.3, 423.8 200.9, 437.5 210.9 C 446.3 217.4, 453.3 220, 463.6 220.7 L 471.8 221.3 473.8 215.8 C 488.9 175.5, 479.5 127.8, 449.6 92.8 L 443.1 85.2 439.4 67.6 L 435.6 50 428.1 50.1 C 423.9 50.2, 417.4 50.7, 413.5 51.1 M 227 312.6 C 177.2 319.3, 132.2 348.4, 98.7 395.8 C 96.2 399.4, 95.4 401.2, 96.2 401.5 C 99.8 402.8, 123.1 408.2, 134 410.4 C 212.7 425.8, 319.4 424.4, 394.2 406.9 L 402.9 404.8 398.8 399.2 C 367.1 355.8, 321.6 324.9, 274.9 314.9 C 265.6 312.9, 235.6 311.5, 227 312.6" fill-rule="evenodd" class="m-fur m-silhouette"/>
            <path d="M 295 172.5 C 285.3 178.1, 265.1 181.6, 233.5 183 C 210.6 184, 197.4 185.8, 195.8 188.2 C 194.5 190.3, 194.9 202.2, 196.5 208.3 C 207.6 250.8, 270.2 261.2, 297.3 225.1 C 308.1 210.7, 310 192.1, 302.3 176.4 C 299.5 170.6, 298.9 170.3, 295 172.5" class="m-saddle m-silhouette"/>
          </g>
          <!-- openwork rocker -->
          <g class="m-lace"><circle cx="18" cy="106.4" r="1.5"/><circle cx="25" cy="108.4" r="1.5"/><circle cx="32" cy="110.1" r="1.5"/><circle cx="39" cy="111.4" r="1.5"/><circle cx="46" cy="112.3" r="1.5"/><circle cx="53" cy="112.8" r="1.5"/><circle cx="60" cy="113" r="1.5"/><circle cx="67" cy="112.8" r="1.5"/><circle cx="74" cy="112.3" r="1.5"/><circle cx="81" cy="111.4" r="1.5"/><circle cx="88" cy="110.1" r="1.5"/><circle cx="95" cy="108.4" r="1.5"/><circle cx="102" cy="106.4" r="1.5"/></g>
          <!-- lace garland, rosettes, tail dots -->
          <path d="M32 79a2 2 0 0 0 4 0a2 2 0 0 0 4 0a2 2 0 0 0 4 0a2 2 0 0 0 4 0a2 2 0 0 0 4 0a2 2 0 0 0 4 0a2 2 0 0 0 4 0a2 2 0 0 0 4 0a2 2 0 0 0 4 0a2 2 0 0 0 4 0a2 2 0 0 0 4 0a2 2 0 0 0 4 0a2 2 0 0 0 4 0a2 2 0 0 0 4 0" class="m-lace"/>
          <g class="m-lace-fill"><circle cx="34" cy="83" r=".7"/><circle cx="38" cy="83" r=".7"/><circle cx="42" cy="83" r=".7"/><circle cx="46" cy="83" r=".7"/><circle cx="50" cy="83" r=".7"/><circle cx="54" cy="83" r=".7"/><circle cx="58" cy="83" r=".7"/><circle cx="62" cy="83" r=".7"/><circle cx="66" cy="83" r=".7"/><circle cx="70" cy="83" r=".7"/><circle cx="74" cy="83" r=".7"/><circle cx="78" cy="83" r=".7"/><circle cx="82" cy="83" r=".7"/><circle cx="86" cy="83" r=".7"/><circle cx="33.6" cy="85.5" r="1.1"/><circle cx="32.3" cy="87.8" r="1.1"/><circle cx="29.7" cy="87.8" r="1.1"/><circle cx="28.4" cy="85.5" r="1.1"/><circle cx="29.7" cy="83.2" r="1.1"/><circle cx="32.3" cy="83.2" r="1.1"/><circle cx="89.6" cy="86" r="1.1"/><circle cx="88.3" cy="88.3" r="1.1"/><circle cx="85.7" cy="88.3" r="1.1"/><circle cx="84.4" cy="86" r="1.1"/><circle cx="85.7" cy="83.7" r="1.1"/><circle cx="88.3" cy="83.7" r="1.1"/></g>
          <circle cx="31" cy="85.5" r="1.2" class="m-gold"/><circle cx="87" cy="86" r="1.2" class="m-gold"/>
          <path d="M20.5 63.5Q29 58.5 38 57.3" class="m-lace-dots"/>
          <!-- mane of little rings -->
          <g class="m-ring"><circle cx="77" cy="50" r="2.4"/><circle cx="80.5" cy="42.5" r="2.4"/><circle cx="84" cy="36" r="2.4"/><circle cx="89" cy="31.5" r="2.4"/><circle cx="95" cy="30.5" r="2.4"/></g>
          <g class="m-gold"><circle cx="77" cy="50" r=".8"/><circle cx="80.5" cy="42.5" r=".8"/><circle cx="84" cy="36" r=".8"/><circle cx="89" cy="31.5" r=".8"/><circle cx="95" cy="30.5" r=".8"/></g>
          <!-- golden noseband -->
          <path d="M97 51q5.5 2.5 11.2-1" class="m-bridle"/>
          <circle cx="97" cy="51" r="1.1" class="m-gold"/>
          <circle cx="91.5" cy="49.5" r="2.6" class="m-cheek"/>
          <g class="m-eyes">
            <ellipse cx="97" cy="42.5" rx="3.4" ry="3.8" class="m-white"/>
            <g class="m-pupils">
              <circle cx="97.8" cy="43" r="2.4" class="m-ink"/>
              <circle cx="98.7" cy="42" r=".8" class="m-white"/>
            </g>
            <path d="M93.8 39.2q1.6-1.3 3.3-1.2M95.4 38.6l-.5-1.5M97.3 38.1l.1-1.6" class="m-lash"/>
          </g>
          <g class="m-eyes-happy"><path d="M94 43.5q3-4 6.2 0" class="m-stroke"/></g>
          <path d="M93.5 37 99.8 38.6" class="m-stroke m-brows"/>
          <ellipse cx="106" cy="55.5" rx="1.1" ry=".85" class="m-nose"/>
          <path d="M100 59.5q3 2.2 6.5-.4" class="m-stroke m-mouth-smile"/>
          <g class="m-mouth-open">
            <path d="M99.5 58.8q4 1.2 7.5-1.3-.4 4.6-3.9 5.3-3.2.3-3.6-4z" class="m-mouth-in"/>
            <ellipse cx="103" cy="61.2" rx="1.8" ry="1.1" class="m-tongue"/>
          </g>
          <path d="M100 61q3-2.2 6.5-.4" class="m-stroke m-mouth-sad"/>
          <ellipse cx="103.5" cy="60" rx="1.4" ry="1.8" class="m-mouth-o"/>
        </g>
      </g></g>
  </g>
</svg>
